<svg xmlns="http://www.w3.org/2000/svg" viewBox="0 0 143.38 112.68"><defs><style>.cls-1{fill:#FFFFFF;}</style></defs><g id="Layer_2" data-name="Layer 2"><g id="Layer_1-2" data-name="Layer 1"><path class="cls-1" d="M66.29,112.51h0Z"/><path class="cls-1" d="M128.15,85.37v27.31h8.26c1.17-3.79,2.18-7.68,3-11.48h0A94.27,94.27,0,0,0,141.52,92a.55.55,0,0,0,0-.12c0-.15.05-.28.07-.42A118.16,118.16,0,0,0,128.15,85.37Z"/><path class="cls-1" d="M103.5,78.05v34.63h18.81V83.25A172.28,172.28,0,0,0,103.5,78.05Z"/><path class="cls-1" d="M97.65,112.68V76.88a178.66,178.66,0,0,0-21.17-2.56v.08c0,.15.49,4,.57,4.61,1.18,8.84,3.58,22.78,6,33.65H83v0H97.65Z"/><path class="cls-1" d="M60.29,112.49c2.45-10.86,4.84-24.81,6-33.65h0c.07-.64.55-4.46.57-4.6v-.09a182.08,182.08,0,0,0-21.18,2.56v35.8H60.41v0Z"/><path class="cls-1" d="M138.47,20.12C103.13,19,71.69.17,71.69.17V0S40.25,18.81,4.9,20A209.24,209.24,0,0,0,1,85.18,131.08,131.08,0,0,1,15.22,79V52.86H13.28l4.77-10.93,5,10.9H21.07V77a174.48,174.48,0,0,1,18.8-5V43.16H37.94L42.7,32.23l5,10.9H45.72V70.87a187.14,187.14,0,0,1,21.65-2.49c.46-6.42.68-12.3.7-16.27v0c0-6.64-.29-10.21-.29-10.21A4.19,4.19,0,0,1,67.2,41a4.45,4.45,0,0,1-.49-3s0,0,0-.06H64.18l.07-.16,7.44-16.33h0v.16h0L79.12,38l.07.16H76.66v.06a4.53,4.53,0,0,1,.08.74,4.71,4.71,0,0,1-.56,2.21,5.63,5.63,0,0,1-.58.86s-.33,3.57-.3,10.2v0c0,4,.24,9.84.71,16.27A189.53,189.53,0,0,1,97.65,71V43.3H95.72l5-10.9,4.76,10.94H103.5V72.15a174.7,174.7,0,0,1,18.81,5V53h-1.94l5-10.9L130.09,53h-1.94V79.18a133.1,133.1,0,0,1,14.21,6.17A209.06,209.06,0,0,0,138.47,20.12Z"/><path class="cls-1" d="M21.07,83.05v29.46h18.8V77.87A171.44,171.44,0,0,0,21.07,83.05Z"/><path class="cls-1" d="M1.77,91.27h0c0,.14.05.28.07.42l0,.13h0A94.27,94.27,0,0,0,3.94,101h0c.85,3.8,1.86,7.7,3,11.48h8.26V85.18A118.26,118.26,0,0,0,1.77,91.27Z"/></g></g></svg>
