<?xml version="1.0" encoding="UTF-8" standalone="no"?><!DOCTYPE svg PUBLIC "-//W3C//DTD SVG 1.1//EN" "http://www.w3.org/Graphics/SVG/1.1/DTD/svg11.dtd"><svg width="50px" height="50px" viewBox="0 0 100 100" version="1.1" xmlns="http://www.w3.org/2000/svg"><path d="M98.287,21.025l-7.823,-7.812c-1.066,-1.092 -2.528,-1.708 -4.054,-1.708c-1.525,0 -2.988,0.616 -4.053,1.708l-46.012,46.012l-18.713,-18.712c-1.066,-1.09 -2.529,-1.704 -4.053,-1.704c-1.525,0 -2.987,0.614 -4.054,1.704l-7.812,7.834c-1.092,1.065 -1.708,2.528 -1.708,4.053c0,1.526 0.616,2.988 1.708,4.054l30.551,30.551c1.067,1.089 2.529,1.703 4.054,1.703c1.524,0 2.986,-0.614 4.053,-1.703l57.916,-57.862c1.092,-1.065 1.708,-2.528 1.708,-4.053c0,-1.526 -0.616,-2.988 -1.708,-4.054l0,-0.011l0,0Z" fill="#6453A3"/></svg>
